<?xml version="1.0" encoding="utf-8"?>
<!-- Generator: Adobe Illustrator 25.1.0, SVG Export Plug-In . SVG Version: 6.00 Build 0)  -->
<svg version="1.1" id="Layer_1" xmlns="http://www.w3.org/2000/svg" xmlns:xlink="http://www.w3.org/1999/xlink" x="0px" y="0px"
	 viewBox="0 0 169 107" style="enable-background:new 0 0 169 107;" xml:space="preserve">
<style type="text/css">
	.st0{fill:#183481;}
	.st1{fill:none;stroke:#231F20;stroke-width:8.000000e-02;}
	.st2{fill:#26BBD6;}
	.st3{fill:#7DCCE0;}
	.st4{fill:#006CB5;}
</style>
<path class="st0" d="M74.5,61.9c0.7,0,1.3,0.1,1.7,0.3c0.5,0.2,0.8,0.6,1,1s0.3,0.9,0.4,1.4v12.2h4.5V66c0-0.7,0-1.4-0.1-2.1
	c0-0.7-0.1-1.4-0.2-2c-0.1-0.5-0.2-1-0.5-1.4c-0.2-0.4-0.5-0.8-1-1.1c-0.4-0.3-0.9-0.6-1.6-0.8c-0.6-0.2-1.4-0.3-2.3-0.3
	c-1.4,0-2.6,0.3-3.5,0.8s-1.7,1.1-2.2,1.7l-0.5,0.6L70,60.7c-0.3-0.6-0.8-1.2-1.5-1.7s-1.7-0.7-3.1-0.7c-1.5,0-2.7,0.2-3.6,0.7
	c-0.9,0.5-1.5,1-2,1.6l-0.6,0.9L59,60.4c-0.1-0.6-0.4-1-0.9-1.3c-0.6-0.3-1.2-0.4-2-0.4h-0.7c-0.2,0-0.4,0-0.5,0.1h-0.1v18.1h4.5
	V64.4c0-0.8,0.4-1.4,1.1-1.9c0.7-0.5,1.6-0.7,2.6-0.7c0.8,0,1.4,0.1,1.8,0.4c0.5,0.2,0.8,0.6,1.1,1c0.2,0.4,0.3,0.9,0.4,1.5V77h4.5
	V66.3c0-0.8,0-1.6-0.1-2.3v-0.2l0.1-0.1c0.3-0.5,0.8-0.8,1.5-1.2C73,62,73.7,61.9,74.5,61.9 M89.8,62.6c0.8-0.8,1.8-1.1,3-1.1
	c1.5,0,2.5,0.4,3.1,1.2s0.9,1.8,0.9,3.1h-8.1C88.7,64.4,89.1,63.4,89.8,62.6 M100.5,74.9c0-0.2-0.1-0.6-0.5-1.3
	c-0.2-0.4-0.4-0.8-0.7-1.1c-0.1,0.1-0.3,0.2-0.4,0.4c-0.3,0.3-0.7,0.5-1.1,0.8c-0.4,0.2-0.9,0.4-1.5,0.6c-0.5,0.2-1.2,0.2-1.9,0.2
	c-1.9,0-3.3-0.6-4.2-1.6c-0.9-1-1.4-2.4-1.5-3.9v-0.5h11.9v-2.1c0-1.1-0.1-2.1-0.4-3.1c-0.3-0.9-0.7-1.8-1.3-2.5
	c-0.6-0.7-1.4-1.3-2.4-1.8c-1-0.4-2.2-0.7-3.6-0.7c-1.1,0-2.2,0.2-3.2,0.5c-1,0.4-2,0.9-2.8,1.7s-1.5,1.7-2,2.9s-0.7,2.6-0.7,4.2
	c0,2,0.3,3.6,0.8,4.9c0.6,1.3,1.3,2.3,2.2,3.1c0.9,0.8,1.9,1.3,3.1,1.6c1.2,0.3,2.4,0.5,3.6,0.5c1.3,0,2.5-0.1,3.5-0.4
	s1.7-0.6,2.2-1C100.2,75.7,100.5,75.3,100.5,74.9 M41.7,62.6c0.8-0.8,1.8-1.1,3-1.1c1.5,0,2.5,0.4,3.1,1.2s0.9,1.8,0.9,3.1h-8.1
	C40.6,64.4,40.9,63.4,41.7,62.6 M52.4,74.9c0-0.2-0.1-0.6-0.5-1.3c-0.2-0.4-0.4-0.8-0.7-1.1c-0.1,0.1-0.3,0.2-0.4,0.4
	c-0.3,0.3-0.7,0.5-1.1,0.8c-0.4,0.2-0.9,0.4-1.5,0.6c-0.5,0.2-1.2,0.2-1.9,0.2c-1.9,0-3.3-0.6-4.2-1.6s-1.4-2.4-1.5-3.9v-0.5h11.9
	v-2.1c0-1.1-0.1-2.1-0.4-3.1c-0.3-0.9-0.7-1.8-1.3-2.5s-1.4-1.3-2.4-1.8c-1-0.4-2.2-0.7-3.6-0.7c-1.1,0-2.2,0.2-3.2,0.5
	c-1,0.4-2,0.9-2.8,1.7s-1.5,1.7-2,2.9s-0.7,2.6-0.7,4.2c0,2,0.3,3.6,0.8,4.9c0.6,1.3,1.3,2.3,2.2,3.1c0.9,0.8,1.9,1.3,3.1,1.6
	c1.2,0.3,2.4,0.5,3.6,0.5c1.3,0,2.5-0.1,3.5-0.4s1.7-0.6,2.2-1C52.1,75.7,52.4,75.3,52.4,74.9 M111.6,61.7c0.8,0,1.4,0.1,1.9,0.4
	c0.5,0.3,0.8,0.6,1.1,1.1c0.2,0.4,0.3,0.9,0.4,1.5c0,0.5,0.1,1.1,0.1,1.7V77h4.5V66c0-0.7,0-1.4-0.1-2.1c0-0.7-0.1-1.4-0.3-1.9
	c-0.2-1.1-0.8-2-1.6-2.7c-0.8-0.7-2.1-1-3.9-1c-1.5,0-2.7,0.2-3.6,0.7s-1.5,1-2,1.6l-0.6,0.9l-0.2-1.1c-0.1-0.6-0.4-1-0.9-1.3
	c-0.6-0.3-1.2-0.4-2-0.4h-0.7c-0.2,0-0.4,0-0.5,0.1h-0.1v18.1h4.5V64.4c0-0.8,0.4-1.5,1.3-2C109.5,61.9,110.5,61.7,111.6,61.7
	 M133,70.9c-0.4,0.8-0.9,1.3-1,1.4c-0.2,0.2-0.6,0.6-0.9,0.8c-0.3,0.2-0.7,0.4-1.1,0.5c-0.4,0.1-0.9,0.2-1.4,0.2
	c-0.9,0-1.5-0.2-1.8-0.6c-0.4-0.4-0.6-1-0.6-1.7c0-0.6,0.1-1,0.4-1.4s0.7-0.7,1.1-0.9c0.5-0.3,1-0.4,1.7-0.5s1.3-0.2,2-0.2h0.5
	l1.1-0.1L133,70.9L133,70.9z M137.2,72.7v-7.6c0-1.2-0.1-2.2-0.4-3.1c-0.2-0.8-0.7-1.5-1.2-2.1c-0.6-0.6-1.3-1-2.2-1.2
	c-1-0.3-2.1-0.4-3.5-0.4c-1,0-2,0.1-2.9,0.3s-1.7,0.4-2.4,0.7c-0.7,0.3-1.2,0.5-1.6,0.9c-0.3,0.2-0.4,0.5-0.4,0.7c0,0.1,0,0.4,0.3,1
	c0.2,0.4,0.4,0.7,0.6,1.1c0.7-0.4,1.5-0.8,2.3-1.1c1-0.4,2.1-0.6,3.3-0.6c1.4,0,2.3,0.2,3,0.8c0.7,0.5,1,1.4,1,2.6v1.2h-2.2
	c-0.9,0.1-2,0.2-3.1,0.4s-2.1,0.5-3.1,1c-0.9,0.5-1.7,1.1-2.3,1.9c-0.6,0.8-0.9,1.8-0.9,3c0,1,0.2,1.9,0.5,2.6s0.8,1.3,1.3,1.7
	c0.5,0.4,1.1,0.7,1.8,0.9c0.7,0.2,1.4,0.3,2,0.3c1.3,0,2.4-0.2,3.3-0.6s1.6-0.9,2.2-1.5l0.7-0.7l0.2,0.9c0.1,0.6,0.4,1,0.8,1.3
	c0.4,0.3,1,0.5,1.9,0.5c0.4,0,0.8,0,1.2-0.1c0.2,0,0.5-0.1,0.7-0.2C137.5,76,137.2,74.6,137.2,72.7 M32.8,78.2
	c0.5-1.1,0.8-2.3,1-3.5c0.1-1.3,0.2-2.5,0.2-3.5V56.6c0-0.6-0.1-1-0.3-1.4c-0.2-0.3-0.4-0.6-0.7-0.8s-0.7-0.3-1-0.4
	c-0.4-0.1-0.8-0.1-1.1-0.1h-0.5C30,54,29.8,54,29.6,54h-0.3v19.4c0,1-0.1,1.9-0.4,2.5c-0.3,0.7-0.7,1.2-1.2,1.7
	c-0.5,0.4-1.1,0.7-1.8,0.9l-1.8,0.3v0.5c0,0.3,0,0.6,0.1,0.8c0.1,0.7,0.3,1.2,0.6,1.4c0.3,0.3,0.9,0.4,1.7,0.4c1.7,0,3.1-0.4,4-1.1
	C31.5,80.2,32.3,79.2,32.8,78.2"/>
<path class="st1" d="M118.3,45.5"/>
<path class="st2" d="M126.5,14.5c0.2,1.2,0.3,2.5,0.3,3.8c0,14.3-11.6,26-26,26h-1.4c3.7,5.5,10,9.2,17.2,9.2
	c11.4,0,20.7-9.3,20.7-20.7C137.3,24.9,132.9,18,126.5,14.5"/>
<path class="st0" d="M126.5,14.5c0.2,1.2,0.3,2.5,0.3,3.8c0,4.8-1.3,9.3-3.6,13.2c3.9,4.1,6.4,9.6,6.4,15.7c0,0.6,0,1.1-0.1,1.7
	c4.8-3.8,7.8-9.6,7.8-16.2C137.3,24.9,132.9,18,126.5,14.5"/>
<path class="st3" d="M125.3,13.9c-2.7-1.2-5.6-1.9-8.8-1.9c-11.4,0-20.7,9.3-20.7,20.7c0,0.7,0,1.4,0.1,2.1c2.1,0.7,4.4,1,6.7,1
	C114.9,35.8,124.9,26.1,125.3,13.9"/>
<path class="st4" d="M106.9,24.6c4.6,0,8.9,1.4,12.5,3.8c3.5-3.8,5.7-8.9,5.9-14.4c-2.7-1.2-5.6-1.9-8.8-1.9
	c-9.5,0-17.5,6.4-19.9,15.1C99.7,25.5,103.2,24.6,106.9,24.6"/>
<g>
	<path class="st2" d="M36.6,81.9h0.7v3.3c0.3-0.8,1.1-1.3,2-1.3c1.7,0,2.6,1.4,2.6,3s-0.8,3-2.6,3c-0.9,0-1.7-0.5-2-1.3v1.1h-0.6
		v-7.8L36.6,81.9z M39.3,84.5c-1.5,0-2,1.3-2,2.5s0.5,2.5,2,2.5c1.3,0,1.9-1.3,1.9-2.5S40.7,84.5,39.3,84.5z M43,84.1h0.6v1.3
		c0.4-0.9,1.1-1.5,2.2-1.4v0.7c-1.3-0.1-2.1,0.9-2.1,2.1v3.1H43C43,89.9,43,84.1,43,84.1z M46.5,81.9h0.7V83h-0.7V81.9z M46.5,84.1
		h0.7v5.7h-0.7V84.1z M48.5,84.1h0.7v1c0.3-0.7,1-1.2,1.8-1.2c1.6,0,2.1,0.8,2.1,2.2v3.7h-0.7v-3.6c0-1-0.3-1.7-1.5-1.7
		c-1.1,0-1.8,0.8-1.8,2v3.4h-0.7v-5.8H48.5z M59.4,89.4c0,1.7-0.7,2.8-2.6,2.8c-1.1,0-2.3-0.5-2.4-1.7h0.7c0.2,0.8,0.9,1.1,1.7,1.1
		c1.3,0,1.8-0.8,1.8-2.2v-0.8c-0.3,0.7-1,1.2-1.8,1.2c-1.8,0-2.6-1.3-2.6-3c0-1.6,0.9-2.9,2.6-2.9c0.8,0,1.5,0.5,1.8,1.2v-1h0.7
		L59.4,89.4L59.4,89.4z M58.7,86.9c0-1.1-0.5-2.4-1.8-2.4S55,85.7,55,86.9s0.6,2.3,1.9,2.3C58.1,89.2,58.7,88.1,58.7,86.9z
		 M60.7,81.9h0.7V83h-0.7V81.9z M60.7,84.1h0.7v5.7h-0.7V84.1z M62.8,84.1h0.7v1c0.3-0.7,1-1.2,1.8-1.2c1.6,0,2.1,0.8,2.1,2.2v3.7
		h-0.7v-3.6c0-1-0.3-1.7-1.5-1.7c-1.1,0-1.8,0.8-1.8,2v3.4h-0.7L62.8,84.1L62.8,84.1z M73.6,89.4c0,1.7-0.7,2.8-2.6,2.8
		c-1.1,0-2.3-0.5-2.4-1.7h0.7c0.2,0.8,0.9,1.1,1.7,1.1c1.3,0,1.8-0.8,1.8-2.2v-0.8c-0.3,0.7-1,1.2-1.8,1.2c-1.8,0-2.6-1.3-2.6-3
		c0-1.6,0.9-2.9,2.6-2.9c0.8,0,1.5,0.5,1.8,1.2v-1h0.7v5.3H73.6z M72.9,86.9c0-1.1-0.5-2.4-1.8-2.4s-1.9,1.2-1.9,2.4
		s0.6,2.3,1.9,2.3C72.3,89.2,72.9,88.1,72.9,86.9z M78.5,87.2c0,1,0.5,2.3,1.9,2.3c1,0,1.6-0.6,1.8-1.5h0.7
		c-0.3,1.3-1.1,2.1-2.5,2.1c-1.8,0-2.6-1.4-2.6-3c0-1.5,0.8-3,2.6-3s2.6,1.6,2.5,3.2L78.5,87.2L78.5,87.2z M82.2,86.6
		c0-1.1-0.7-2-1.8-2s-1.8,1-1.9,2C78.5,86.6,82.2,86.6,82.2,86.6z M83.8,84.1h0.7v1c0.3-0.7,1-1.2,1.8-1.2c1.6,0,2.1,0.8,2.1,2.2
		v3.7h-0.7v-3.6c0-1-0.3-1.7-1.5-1.7c-1.1,0-1.8,0.8-1.8,2v3.4h-0.7L83.8,84.1L83.8,84.1z M90.2,87.2c0,1,0.5,2.3,1.9,2.3
		c1,0,1.6-0.6,1.8-1.5h0.7c-0.3,1.3-1.1,2.1-2.5,2.1c-1.8,0-2.6-1.4-2.6-3c0-1.5,0.8-3,2.6-3s2.6,1.6,2.5,3.2L90.2,87.2L90.2,87.2z
		 M93.9,86.6c0-1.1-0.7-2-1.8-2s-1.8,1-1.9,2C90.2,86.6,93.9,86.6,93.9,86.6z M95.6,84.1h0.6v1.3c0.4-0.9,1.1-1.5,2.2-1.4v0.7
		c-1.3-0.1-2.1,0.9-2.1,2.1v3.1h-0.7C95.6,89.9,95.6,84.1,95.6,84.1z M104,89.4c0,1.7-0.7,2.8-2.6,2.8c-1.1,0-2.3-0.5-2.4-1.7h0.7
		c0.2,0.8,0.9,1.1,1.7,1.1c1.3,0,1.8-0.8,1.8-2.2v-0.8c-0.3,0.7-1,1.2-1.8,1.2c-1.8,0-2.6-1.3-2.6-3c0-1.6,0.9-2.9,2.6-2.9
		c0.8,0,1.5,0.5,1.8,1.2v-1h0.7v5.3H104z M103.2,86.9c0-1.1-0.5-2.4-1.8-2.4s-1.9,1.2-1.9,2.4s0.6,2.3,1.9,2.3
		C102.6,89.2,103.2,88.1,103.2,86.9z M104.6,84.1h0.7l1.9,4.9l1.8-4.9h0.7l-2.5,6.6c-0.4,1-0.6,1.2-1.5,1.2c-0.3,0-0.4,0-0.5-0.1
		v-0.6c0.2,0,0.3,0.1,0.5,0.1c0.6,0,0.8-0.4,1-0.9l0.2-0.7C106.9,89.7,104.6,84.1,104.6,84.1z M114.7,84.1h1.2v0.6h-1.2v3.9
		c0,0.5,0.1,0.7,0.6,0.8h0.6V90h-0.6c-0.9,0-1.3-0.3-1.2-1.3v-3.9h-1v-0.6h1v-1.7h0.7L114.7,84.1L114.7,84.1z M122,87
		c0,1.6-1,3-2.7,3c-1.8,0-2.7-1.4-2.7-3s1-3,2.7-3C121,83.9,122,85.3,122,87z M117.2,87c0,1.2,0.7,2.5,2,2.5s2-1.2,2-2.5
		s-0.7-2.5-2-2.5S117.2,85.7,117.2,87z M126.1,81.9h0.7v8h-0.7V81.9z M128.2,81.9h0.7V83h-0.7V81.9z M128.2,84.1h0.7v5.7h-0.7V84.1z
		 M132.5,84.7h-1.1v5.2h-0.7v-5.2h-1v-0.6h1v-0.5c0-1,0.3-1.7,1.4-1.7h0.6v0.6c-0.2,0-0.3-0.1-0.5-0.1c-0.8,0-0.8,0.5-0.8,1.1V84
		h1.1V84.7z M133.5,87.2c0,1,0.5,2.3,1.9,2.3c1,0,1.6-0.6,1.8-1.5h0.7c-0.3,1.3-1.1,2.1-2.5,2.1c-1.8,0-2.6-1.4-2.6-3
		c0-1.5,0.8-3,2.6-3s2.6,1.6,2.5,3.2L133.5,87.2L133.5,87.2z M137.3,86.6c0-1.1-0.7-2-1.8-2s-1.8,1-1.9,2H137.3z"/>
</g>
</svg>
